<?xml version="1.0" encoding="UTF-8" standalone="no"?>
<!-- Created with Inkscape (http://www.inkscape.org/) -->

<svg
   version="1.1"
   id="svg1"
   width="1153"
   height="1153"
   viewBox="0 0 1153 1153"
   sodipodi:docname="logo_baruvet_white.svg"
   inkscape:version="1.4.2 (f4327f4, 2025-05-13)"
   xml:space="preserve"
   xmlns:inkscape="http://www.inkscape.org/namespaces/inkscape"
   xmlns:sodipodi="http://sodipodi.sourceforge.net/DTD/sodipodi-0.dtd"
   xmlns="http://www.w3.org/2000/svg"
   xmlns:svg="http://www.w3.org/2000/svg"><defs
     id="defs1"><inkscape:path-effect
       effect="spiro"
       id="path-effect5"
       is_visible="true"
       lpeversion="1" /><inkscape:path-effect
       effect="spiro"
       id="path-effect4"
       is_visible="true"
       lpeversion="1" /><inkscape:path-effect
       effect="spiro"
       id="path-effect3"
       is_visible="true"
       lpeversion="1" /><inkscape:path-effect
       effect="skeletal"
       id="path-effect2"
       is_visible="true"
       lpeversion="1"
       pattern="M 0,18.867925 C 0,8.4528302 8.4528302,0 18.867925,0 c 10.415094,0 18.867924,8.4528302 18.867924,18.867925 0,10.415094 -8.45283,18.867924 -18.867924,18.867924 C 8.4528302,37.735849 0,29.283019 0,18.867925 Z"
       copytype="single_stretched"
       prop_scale="1"
       scale_y_rel="false"
       spacing="0"
       normal_offset="0"
       tang_offset="0"
       prop_units="false"
       vertical_pattern="false"
       hide_knot="false"
       fuse_tolerance="0" /><inkscape:path-effect
       effect="spiro"
       id="path-effect1"
       is_visible="true"
       lpeversion="1" /><inkscape:path-effect
       effect="spiro"
       id="path-effect1-4"
       is_visible="true"
       lpeversion="1" /><inkscape:path-effect
       effect="spiro"
       id="path-effect1-4-5"
       is_visible="true"
       lpeversion="1" /><inkscape:path-effect
       effect="spiro"
       id="path-effect1-4-2"
       is_visible="true"
       lpeversion="1" /><inkscape:path-effect
       effect="spiro"
       id="path-effect1-4-2-3"
       is_visible="true"
       lpeversion="1" /><inkscape:path-effect
       effect="spiro"
       id="path-effect5-4"
       is_visible="true"
       lpeversion="1" /></defs><sodipodi:namedview
     id="namedview1"
     pagecolor="#ffffff"
     bordercolor="#999999"
     borderopacity="1"
     inkscape:showpageshadow="2"
     inkscape:pageopacity="0"
     inkscape:pagecheckerboard="0"
     inkscape:deskcolor="#d1d1d1"
     showgrid="true"
     inkscape:zoom="0.70685169"
     inkscape:cx="341.65583"
     inkscape:cy="582.1589"
     inkscape:window-width="1920"
     inkscape:window-height="1017"
     inkscape:window-x="-8"
     inkscape:window-y="-8"
     inkscape:window-maximized="1"
     inkscape:current-layer="layer2"><inkscape:grid
       id="grid1"
       units="px"
       originx="0"
       originy="0"
       spacingx="1"
       spacingy="1"
       empcolor="#0099e5"
       empopacity="0.30196078"
       color="#0099e5"
       opacity="0.14901961"
       empspacing="5"
       enabled="true"
       visible="true" /></sodipodi:namedview><g
     inkscape:groupmode="layer"
     id="layer1"
     inkscape:label="Logo"><g
       inkscape:groupmode="layer"
       id="layer6"
       inkscape:label="Text"><path
         style="font-size:192px;font-family:'Titan One';-inkscape-font-specification:'Titan One';fill:#ffffff;fill-opacity:1"
         d="m 209.94426,996.66943 h -42.048 q -9.6,0 -12.864,-1.344 -3.264,-1.344 -3.264,-4.224 v -123.456 q 0,-9.216 55.488,-9.216 31.872,0 43.968,6.144 12.288,6.336 15.744,16.128 1.92,5.76 1.92,13.44 0,14.976 -5.184,22.464 -4.992,7.488 -10.944,8.448 9.024,1.92 14.976,8.832 5.952,6.912 5.952,23.424 0,19.2 -11.712,28.416 -10.176,8.064 -31.104,10.176 -8.832,0.768 -20.928,0.768 z m 0.192,-83.712 q 9.792,0 9.792,-13.056 0,-6.528 -2.688,-9.6 -2.496,-3.264 -5.76,-3.264 h -6.144 v 25.92 z m -4.8,55.104 h 4.8 q 9.792,0 9.792,-13.056 0,-6.528 -2.688,-9.6 -2.496,-3.264 -5.76,-3.264 h -6.144 z m 117.31199,30.336 q -17.472,0 -27.456,-8.256 -4.032,-3.456 -7.104,-10.176 -2.88,-6.72 -2.88,-15.744 0,-9.024 4.224,-15.744 4.416,-6.72 10.56,-10.368 6.144,-3.648 14.4,-5.952 12.48,-3.264 27.456,-3.264 h 6.336 q 0,-7.872 -5.376,-11.136 -2.304,-1.344 -7.104,-1.344 -4.608,0 -11.328,2.496 -6.528,2.496 -10.944,5.184 -4.416,2.496 -5.952,2.496 -3.456,0 -9.408,-9.024 -5.952,-9.216 -5.952,-16.704 0,-2.496 7.104,-6.528 7.104,-4.032 19.968,-7.296 13.056,-3.456 25.344,-3.456 12.288,0 21.12,2.112 9.024,1.92 14.592,4.8 5.76,2.88 9.6,7.68 4.032,4.8 5.952,8.64 2.112,3.84 3.072,9.984 1.344,7.104 1.344,17.472 v 57.792 q 0,2.112 -10.368,3.456 -10.176,1.152 -20.352,1.152 -9.984,0 -13.056,-0.576 -2.88,-0.576 -3.456,-1.344 -0.576,-0.768 -0.96,-2.688 l -1.536,-10.944 h -1.536 q -4.8,17.28 -26.304,17.28 z m 25.728,-31.872 v -22.464 q -4.992,0 -8.064,4.224 -3.072,4.224 -3.072,9.6 0,12.672 5.76,12.672 2.496,0 3.84,-1.152 1.536,-1.344 1.536,-2.88 z m 117.11991,-30.528 v 56.064 q 0,2.112 -10.944,3.456 -10.752,1.152 -22.464,1.152 -11.52,0 -14.976,-0.96 -3.456,-1.152 -3.456,-3.648 v -94.656 q 0,-3.648 10.56,-7.872 10.752,-4.224 23.232,-4.224 12.672,0 14.208,6.912 l 1.92,8.832 h 1.344 q 2.688,-7.296 12.864,-12.288 10.176,-5.184 20.352,-5.184 10.176,0 14.208,3.264 4.224,3.264 4.224,8.448 0,4.992 -0.768,12.864 -0.768,7.872 -3.84,17.088 -2.88,9.216 -7.68,9.216 -1.92,0 -12.096,-2.88 -10.176,-2.88 -16.896,-2.88 -6.528,0 -8.256,1.92 -1.536,1.92 -1.536,5.376 z m 99.26409,62.4 q -21.504,0 -30.144,-11.136 -8.448,-11.136 -8.448,-38.784 v -52.224 q 0,-3.84 11.328,-7.296 11.328,-3.648 23.808,-3.648 16.704,0 16.704,8.64 v 48.768 q 0,14.592 1.152,21.312 1.152,6.528 5.76,6.528 6.144,0 6.144,-5.184 v -69.12 q 0,-4.032 11.904,-7.488 11.904,-3.456 25.92,-3.456 14.016,0 14.016,7.488 v 98.88 q 0,2.688 -12.096,3.84 -12.096,1.152 -23.808,1.152 -11.712,0 -11.904,-3.072 l -1.92,-12.48 h -1.536 q -1.728,6.912 -6.912,11.328 -2.688,2.304 -8.064,4.224 -5.184,1.728 -11.904,1.728 z m 86.7839,-124.416 q 0,-2.304 4.992,-5.376 4.992,-3.264 14.016,-5.76 9.216,-2.496 19.968,-2.496 10.752,0 15.744,3.072 4.992,3.072 5.376,6.72 l 6.72,69.888 h 2.688 l 5.952,-68.16 q 0.576,-5.376 13.056,-8.448 12.48,-3.072 23.232,-3.072 10.752,0 15.936,1.92 5.184,1.728 6.528,3.648 1.536,1.92 1.536,3.648 0,1.536 -2.88,9.024 -2.688,7.296 -5.76,15.744 -10.176,26.88 -34.368,96.384 -2.112,5.952 -33.024,5.952 -9.6,0 -12.672,-1.344 -3.072,-1.344 -4.224,-4.608 -11.328,-32.64 -27.072,-74.112 -15.744,-41.472 -15.744,-42.624 z m 194.87986,79.296 q 0,12.48 11.904,12.48 6.912,0 18.048,-4.608 11.136,-4.8 11.712,-4.8 3.648,0 9.6,10.944 5.952,10.944 5.952,16.128 0,7.488 -15.36,11.328 -15.36,3.84 -30.144,3.84 -14.592,0 -24.576,-2.304 -9.792,-2.304 -16.128,-5.76 -6.144,-3.648 -10.944,-8.832 -4.608,-5.184 -6.912,-9.792 -2.304,-4.8 -3.648,-10.56 -1.92,-8.448 -1.92,-17.472 0,-34.944 18.24,-48.192 9.024,-6.72 20.16,-9.408 11.136,-2.688 26.304,-2.688 48.576,0 48.576,33.792 0,35.904 -54.528,35.904 z m -0.384,-28.032 v 12.672 q 5.568,0 9.024,-4.416 3.648,-4.416 3.648,-10.752 0,-11.52 -5.952,-11.52 -6.72,0 -6.72,14.016 z m 148.22379,69.696 q -3.456,3.264 -15.7439,3.264 -12.288,0 -20.352,-1.536 -8.064,-1.728 -15.36,-6.528 -14.016,-9.408 -14.016,-39.168 v -29.952 h -9.6 q -2.112,0 -3.648,-4.416 -1.536,-4.416 -1.536,-12.096 0,-7.68 2.304,-13.44 2.496,-5.952 6.336,-5.952 h 6.144 v -23.232 q 0,-5.952 11.52,-9.6 11.712,-3.648 22.848,-3.648 17.472,0 17.472,8.64 v 27.84 h 14.2079 q 4.992,0 4.992,14.4 0,9.408 -2.304,15.552 -2.112,5.952 -5.568,5.952 h -11.3279 v 35.136 q 0,5.184 4.416,7.488 4.4159,2.112 7.6799,2.112 3.456,0 4.224,3.264 0.768,3.264 0.768,9.792 0,12.864 -3.456,16.128 z"
         id="text4"
         aria-label="BaruVet"
         inkscape:label="BaruVet" /></g><g
       inkscape:groupmode="layer"
       id="layer4"
       inkscape:label="Cat"><path
         style="fill:#ffffff;fill-opacity:1"
         d="m 711.25245,432.90552 v 0 c -0.59537,-17.05299 -4.97509,-33.96357 -12.73251,-49.16165 -3.84471,-7.53242 -8.50825,-14.64655 -13.88198,-21.17665 l -2.29892,-0.88421 c -1.56435,-0.53986 -3.30214,-0.56345 -4.88056,-0.0663 -1.57842,0.49721 -2.98896,1.51252 -3.96147,2.85149 -1.10777,1.5252 -1.62177,3.38682 -2.34314,5.12838 -1.7618,4.25341 -4.79441,7.84321 -7.91361,11.22937 -8.00725,8.69256 -16.91171,16.55817 -26.52607,23.43136 l -19.6293,9.10729 c -7.5447,2.06007 -15.49206,2.63421 -23.25452,1.67998 -5.12495,-0.63001 -10.14328,-1.914 -15.20828,-2.91787 -5.18482,-1.02762 -10.69073,-1.73923 -15.65039,0.0884 -3.16497,1.16629 -5.94381,3.35555 -7.81846,6.15965 -1.87465,2.8041 -2.83554,6.20872 -2.70355,9.57916 0.22462,3.83555 0.90895,7.64398 2.03367,11.31779 2.7821,9.0875 8.20504,17.18701 14.58934,24.22715 4.81706,5.31191 10.1953,10.0804 15.2967,15.11986 6.33153,6.25465 12.30903,13.02989 16.35775,20.9556 4.78102,9.35925 6.68581,20.16345 5.39363,30.5934 -0.64714,3.65574 -1.4438,7.28501 -2.38734,10.87569 -0.41062,1.56265 -0.84906,3.11807 -1.23789,4.68628 -1.72914,6.97399 -2.4658,14.15169 -3.09471,21.30927 -1.47268,16.76029 -2.38058,33.64135 -0.8842,50.39954 0.56328,6.3083 1.46668,12.59213 1.67999,18.92194 0.1454,4.3147 -0.0408,8.6996 -1.32631,12.82093 -2.31927,7.43581 -8.35636,13.60857 -15.7388,16.09249 -3.7625,1.46624 -7.40409,3.24262 -10.87569,5.30521 -4.31244,2.56217 -8.365,5.56583 -12.82094,7.8694 -1.28078,0.66212 -2.59755,1.2669 -3.97891,1.67999 -0.64315,0.19233 -1.30544,0.34342 -1.97673,0.34671 -0.67128,0.003 -1.35632,-0.14952 -1.91376,-0.52355 -0.44958,-0.30166 -0.80302,-0.74084 -1.01542,-1.23885 -0.21239,-0.498 -0.28485,-1.0528 -0.22246,-1.5906 0.0889,-0.76653 0.44524,-1.48381 0.91579,-2.09541 0.47054,-0.61161 1.05319,-1.12712 1.6484,-1.61824 3.40655,-2.81082 7.31837,-4.93352 11.22937,-6.9852 2.89878,-1.52068 5.85656,-3.04357 8.22308,-5.30521 2.08419,-1.99183 3.64748,-4.52407 4.49422,-7.27984 0.84674,-2.75576 0.97506,-5.72892 0.36889,-8.54739 -1.92962,-5.48624 -6.23692,-10.08947 -11.58305,-12.37883 -2.65801,-1.13823 -5.52571,-1.71821 -8.39992,-2.03367 -9.83401,-1.07934 -20.06296,0.97671 -28.47132,6.18942 -6.58606,4.08298 -11.98666,10.05422 -15.38982,17.01594 -3.40316,6.96171 -4.7978,14.89122 -3.97422,22.59633 1.35362,14.11801 8.1042,27.65131 18.56826,37.22492 9.40618,8.60575 21.49571,13.91342 33.95337,16.62301 9.658,2.10066 19.57121,2.71524 29.44394,3.18313 27.71152,1.31329 55.47546,1.51983 83.20345,0.61894 15.85576,0.28957 31.76305,-2.5929 46.50905,-8.42766 31.61595,-12.50993 57.3798,-39.05347 68.9232,-71.03497 11.5434,-31.9815 8.66839,-68.86959 -7.70809,-98.66686 -5.52572,-10.05414 -12.4934,-19.30047 -20.5074,-27.50992 -13.69246,-14.0264 -30.38758,-25.02249 -43.01552,-40.01444 -2.90194,-3.44519 -5.57199,-7.08333 -8.03736,-10.85328 -1.70626,-2.60914 -3.35417,-5.39162 -3.71365,-8.48835 -0.39627,-3.41368 0.81358,-6.77861 1.76841,-10.0799 2.46552,-8.52448 3.31024,-17.51469 2.47576,-26.34924 z"
         id="path4"
         inkscape:path-effect="#path-effect4"
         inkscape:original-d="m 711.25245,432.90552 c 0.82526,-8.78308 0,0 0,0 0,0 -11.43568,-40.9091 -12.73251,-49.16165 -1.29683,-8.25256 -13.88198,-21.17665 -13.88198,-21.17665 0.0884,-0.0442 -3.09471,-1.19368 -2.29892,-0.88421 -0.79579,-0.39789 -6.01258,1.60631 -8.84203,2.78524 -2.82945,1.17894 -1.56209,3.41892 -2.34314,5.12838 -0.78104,1.70945 -5.27574,7.48624 -7.91361,11.22937 -2.63787,3.74312 -35.39757,31.24182 -26.52607,23.43136 -8.95992,7.81046 -26.14292,12.17252 -19.6293,9.10729 -6.51362,3.15365 -15.56196,1.14946 -23.25452,1.67998 -7.69256,0.53052 -10.07991,-1.94524 -15.20828,-2.91787 -5.12838,-0.97262 -10.43359,0.0589 -15.65039,0.0884 -5.21679,0.0295 -13.99987,20.98508 -10.52201,15.73881 -3.38944,5.24627 1.38525,7.54519 2.03367,11.31779 0.64842,3.7726 9.72623,16.15143 14.58934,24.22715 4.86311,8.07571 10.1978,10.07991 15.2967,15.11986 5.0989,5.03995 10.90517,13.9704 16.35775,20.9556 5.45258,6.9852 7.19151,40.76173 5.39363,30.5934 1.79788,10.07991 -1.59156,7.22099 -2.38734,10.87569 -0.79579,3.65471 -0.61894,2.85892 -1.23789,4.68628 -0.61894,1.82735 -2.00419,14.08829 -3.09471,21.30927 -1.09051,7.22099 -0.64841,33.62917 -0.8842,50.39954 -0.23578,16.77038 1.17894,12.58515 1.67999,18.92194 0.50105,6.33678 -0.85473,8.63571 -1.32631,12.82093 -0.47157,4.18523 -20.95559,21.45665 -15.7388,16.09249 -5.21679,5.27574 -7.22099,3.47786 -10.87569,5.30521 -3.6547,1.82735 -8.57676,5.27574 -12.82094,7.8694 -4.24417,2.59366 -2.68208,1.14947 -3.97891,1.67999 -1.29683,0.53052 -2.62313,-0.17684 -3.89049,-0.17684 -1.26735,0 -0.76631,-1.85683 -1.23788,-2.82945 -0.47158,-0.97262 1.65051,-2.74103 2.56419,-3.71365 0.91367,-0.97262 7.48624,-4.6568 11.22937,-6.9852 3.74312,-2.3284 5.541,-3.59576 8.22308,-5.30521 2.68208,-1.70946 6.57257,-21.16192 4.86311,-15.82723 1.79788,-5.33469 -7.66308,-8.22308 -11.58305,-12.37883 -3.91996,-4.15575 -5.68837,-1.38525 -8.39992,-2.03367 -2.71156,-0.64841 -18.98088,4.09681 -28.47132,6.18942 -9.49044,2.09261 -25.90713,52.78689 -19.36404,39.61227 -6.63151,13.17462 12.34937,24.81662 18.56826,37.22492 6.21889,12.40831 22.66505,11.11148 33.95337,16.62301 11.28832,5.51153 19.57035,2.38735 29.44394,3.18313 9.8736,0.79578 110.90846,0.82525 83.20345,0.61894 27.70501,0.11789 31.00604,-5.98137 46.50905,-8.42766 15.50302,-2.4463 45.14497,-106.46548 61.21511,-169.70183 16.07014,-63.23635 -13.83833,-18.50668 -20.5074,-27.50992 -6.66907,-9.00325 -28.67701,-26.50957 -43.01552,-40.01444 -14.3385,-13.50487 -5.35824,-7.17657 -8.03736,-10.85328 -2.67912,-3.67671 -2.53471,-5.83574 -3.71365,-8.48835 -1.17893,-2.6526 1.06105,-6.71994 1.76841,-10.0799 0.70736,-3.35997 1.65051,-17.56616 2.47576,-26.34924 z"
         inkscape:label="Cat"
         transform="translate(-10.570552,87.412469)" /></g><g
       inkscape:groupmode="layer"
       id="layer3"
       inkscape:label="Dog"><path
         style="fill:#ffffff;fill-opacity:1;stroke:none;stroke-width:2;stroke-dasharray:none;stroke-opacity:1"
         d="m 489.92674,734.76507 c 9.42555,-0.14236 18.84842,-0.47141 28.2602,-1.00036 7.88739,-0.44328 15.7669,-1.02695 23.63352,-1.75063 -6.21872,-3.07849 -12.13372,-6.77012 -17.63136,-11.00397 -10.22725,-7.87623 -19.26971,-18.14029 -22.50812,-30.63606 -1.6422,-6.33663 -1.72477,-12.98855 -1.1254,-19.50703 0.6521,-7.09202 2.12222,-14.17534 5.12685,-20.63245 5.23704,-11.25466 15.23189,-20.21244 27.00974,-24.1337 7.41208,-2.46774 15.32255,-2.98472 23.13335,-3.12613 4.0354,-0.0731 8.14067,-0.0416 12.00433,1.12541 5.37039,1.62209 9.96358,5.41443 13.00469,10.12865 3.95878,6.13677 5.34149,13.87993 3.75135,21.00758 1.93662,-1.32074 3.60546,-3.03238 4.87676,-5.00181 0.78045,-1.20903 1.41203,-2.51408 1.87568,-3.87639 1.0174,-2.98937 1.21235,-6.2049 1.03146,-9.35747 -0.18089,-3.15258 -0.7268,-6.27092 -1.15651,-9.3993 -1.80099,-13.1115 -1.56175,-26.40835 -1.25045,-39.6393 0.35044,-14.89453 0.80868,-29.93967 4.5749,-44.35444 1.77128,-6.77935 4.2844,-13.50669 4.24417,-20.5135 -0.0309,-5.38946 -1.59278,-10.68674 -3.89049,-15.56196 -6.13927,-13.02613 -17.18991,-22.9262 -27.23343,-33.24601 -6.88319,-7.07255 -13.47298,-14.59296 -18.03773,-23.34295 -2.80867,-5.38383 -4.82625,-11.23167 -5.42441,-17.27455 -0.59815,-6.04288 0.26819,-12.29108 2.94864,-17.73987 2.75762,-5.60565 7.54142,-10.32069 13.43988,-12.37883 6.53097,-2.27884 13.70211,-1.20493 20.51349,0 5.28829,0.9355 10.57247,1.93576 15.91565,2.47577 9.7119,0.98154 19.85816,0.35456 28.64816,-3.89049 6.92395,-3.34386 12.61303,-8.72082 18.39141,-13.79356 3.45128,-3.02982 6.97695,-5.98104 10.25675,-9.19571 7.09707,-6.95612 13.00014,-15.12729 17.37458,-24.0503 l 0.53052,-2.34314 -2.87366,-3.71365 -9.81465,-4.73048 c -4.11015,-0.27163 -8.19709,-0.89355 -12.20199,-1.85683 -14.05018,-3.37942 -26.71052,-10.83027 -39.78911,-16.97669 -10.11029,-4.75144 -20.68076,-8.78831 -31.74287,-10.34517 -17.30572,-2.43558 -35.12815,1.37748 -50.93006,8.84203 -7.8428,3.7048 -15.30394,8.32816 -21.67921,14.20957 -6.37527,5.88141 -11.6473,13.05861 -14.74993,21.15853 -3.77705,9.86058 -4.22453,20.62014 -5.30522,31.12392 -1.20441,11.70627 -3.27772,23.43471 -7.78098,34.30706 -6.15462,14.85928 -16.58757,27.52456 -27.58712,39.25859 -19.79678,21.11868 -41.9531,40.0701 -60.12576,62.60153 -11.89842,14.7523 -21.99761,30.9497 -30.06289,48.10062 -4.72698,10.05198 -8.78312,20.52098 -10.61043,31.4776 -3.9613,23.75217 2.96078,48.44786 15.56197,68.96779 15.35372,25.00219 39.49628,44.82311 67.55306,53.40583 19.25982,5.89169 39.71215,6.4864 59.85067,6.18225 z"
         id="path3"
         inkscape:path-effect="#path-effect3"
         inkscape:original-d="m 489.92674,734.76507 c 19.95023,2.06075 18.84013,-0.66691 28.2602,-1.00036 9.42006,-0.33346 23.63352,-1.75063 23.63352,-1.75063 0,0 -11.79592,-7.33598 -17.63136,-11.00397 -5.83544,-3.66799 -15.00541,-20.42404 -22.50812,-30.63606 -7.5027,-10.21201 -0.75027,-13.08805 -1.1254,-19.50703 -0.37514,-6.41898 3.33453,-13.71328 5.12685,-20.63245 1.79231,-6.91916 18.08986,-16.04745 27.00974,-24.1337 8.91989,-8.08625 15.42223,-2.08409 23.13335,-3.12613 7.71111,-1.04204 8.08625,0.75027 12.00433,1.12541 3.91808,0.37513 8.58643,6.75243 13.00469,10.12865 4.41826,3.37622 3.75135,21.00758 3.75135,21.00758 0,0 3.25117,-3.33454 4.87676,-5.00181 1.62559,-1.66726 1.25045,-2.58426 1.87568,-3.87639 0.62522,-1.29214 -0.0834,-12.50452 -0.12505,-18.75677 -0.0417,-6.25226 -0.83363,-26.4262 -1.25045,-39.6393 -0.41682,-13.2131 3.28572,-29.56963 4.5749,-44.35444 1.28918,-14.78481 2.59366,-13.55777 4.24417,-20.5135 1.65051,-6.95572 -2.59366,-10.49253 -3.89049,-15.56196 -1.29683,-5.06943 -18.15562,-22.16401 -27.23343,-33.24601 -9.07782,-11.08201 -11.90726,-15.32618 -18.03773,-23.34295 -6.13047,-8.01677 -1.65052,-23.57873 -2.47577,-35.01442 -0.82526,-11.43568 8.84202,-8.25255 13.43988,-12.37883 4.59785,-4.12628 13.67566,0 20.51349,0 6.83784,0 10.61043,1.65051 15.91565,2.47577 5.30521,0.82525 19.09877,-2.59366 28.64816,-3.89049 9.54938,-1.29683 12.26094,-9.19571 18.39141,-13.79356 6.13047,-4.59785 1.29683,1.53262 10.25675,-9.19571 8.95991,-10.72832 17.37458,-24.0503 17.37458,-24.0503 0,0 0.53052,-2.34314 0.53052,-2.34314 0,0 -2.87366,-3.71365 -2.87366,-3.71365 0.0884,0 -13.0862,-6.30731 -9.81465,-4.73048 -3.18313,-1.57683 -8.16413,-1.23789 -12.20199,-1.85683 -4.03786,-0.61894 -26.46713,-11.31779 -39.78911,-16.97669 -13.32199,-5.65889 -21.16192,-6.89678 -31.74287,-10.34517 -10.58096,-3.44838 -33.71759,5.89469 -50.93006,8.84203 -17.21248,2.94734 -24.52188,23.57873 -36.42914,35.3681 -11.90726,11.78936 -3.41892,20.63139 -5.30522,31.12392 -1.8863,10.49254 -5.06943,23.10716 -7.78098,34.30706 -2.71155,11.1999 -18.5093,25.9366 -27.58712,39.25859 -9.07781,13.32198 -40.20174,41.85225 -60.12576,62.60153 -19.92403,20.74929 -20.04193,32.06708 -30.06289,48.10062 -10.02096,16.03353 -6.95572,21.10296 -10.61043,31.4776 -3.6547,10.37465 10.25675,45.86064 15.56197,68.96779 5.30521,23.10716 45.03537,35.60389 67.55306,53.40583 22.51769,17.80195 39.90045,4.1215 59.85067,6.18225 z"
         inkscape:label="Dog"
         transform="translate(-10.570552,87.412469)" /></g><g
       inkscape:groupmode="layer"
       id="layer2"
       inkscape:label="PawPrints"><path
         id="path1"
         style="fill:#ffffff;fill-opacity:1"
         inkscape:label="PawPrint1"
         d="M 279.05421 255.35747 C 263.47958 255.53518 248.15827 260.86628 235.19792 269.50515 C 213.71362 283.82576 198.78143 307.19464 193.46382 332.4608 C 188.67267 355.22547 191.42076 379.25033 199.47664 401.07437 C 208.24442 424.82702 223.54287 446.4837 244.394 460.84659 C 263.00448 473.66605 285.91646 480.37465 308.45537 478.73565 C 330.99427 477.09665 352.96194 466.94068 368.18155 450.23583 C 381.24727 435.89507 389.09981 417.17454 391.59115 397.9349 C 394.08249 378.69526 391.3766 358.97205 385.15892 340.59514 C 377.03146 316.57369 362.54593 294.28716 342.01003 279.40891 C 335.02703 274.34972 327.43374 270.1905 319.72723 266.32173 C 314.43778 263.66636 309.06923 261.1338 303.45918 259.24789 C 295.61438 256.61074 287.32986 255.26304 279.05421 255.35747 z M 306.40277 305.11129 L 306.42017 347.53522 L 345.1527 347.61165 L 345.1701 384.45027 L 306.43756 384.50759 L 306.40277 426.96974 L 272.61425 426.95063 L 272.61425 384.48849 L 233.90104 384.48849 L 233.88365 347.53522 L 272.61425 347.53522 L 272.61425 305.1304 L 306.40277 305.11129 z "
         transform="matrix(1.0105362,0,0,1.022142,-12.937736,80.697389)" /><path
         style="fill:#ffffff;fill-opacity:1"
         d="m 279.05429,255.35767 c 8.27566,-0.0944 16.55919,1.25333 24.40399,3.89049 5.61005,1.88591 10.97988,4.41824 16.26933,7.07362 7.70651,3.86877 15.29889,8.02702 22.2819,13.0862 20.5359,14.87825 35.02162,37.16536 43.14908,61.18681 6.21768,18.37691 8.92349,38.09978 6.43215,57.33942 -2.49135,19.23964 -10.34312,37.96091 -23.40884,52.30168 -15.21961,16.70485 -37.18806,26.86053 -59.72697,28.49954 -22.5389,1.639 -45.45089,-5.06965 -64.06137,-17.88911 -20.85113,-14.36289 -36.14971,-36.01944 -44.91749,-59.77209 -8.05588,-21.82403 -10.80371,-45.84943 -6.01257,-68.61411 5.31761,-25.26615 20.25004,-48.6346 41.73435,-62.95521 12.96035,-8.63887 28.28181,-13.96953 43.85644,-14.14724 z"
         id="path1-2"
         transform="matrix(1.0353703,0,0,1.0445088,146.61176,-116.37748)"
         inkscape:label="PawPrint2"
         inkscape:original-d="m 279.05429,255.35767 c 14.61882,-4.71575 16.26933,2.59366 24.40399,3.89049 8.13467,1.29683 10.84622,4.83364 16.26933,7.07362 5.42311,2.23998 14.97249,8.72413 22.2819,13.0862 7.30941,4.36206 28.64816,40.67331 43.14908,61.18681 14.50092,20.51349 -11.1999,73.09407 -16.97669,109.6411 -5.77679,36.54703 -82.64345,7.19151 -123.78834,10.61043 -41.14489,3.41892 -29.94499,-39.96595 -44.91749,-59.77209 -14.97249,-19.80613 -4.00838,-45.74274 -6.01257,-68.61411 -2.0042,-22.87137 27.8229,-41.97014 41.73435,-62.95521 13.91145,-20.98507 29.23763,-9.43149 43.85644,-14.14724 z"
         inkscape:path-effect="#path-effect1-4" /><path
         style="fill:#ffffff;fill-opacity:1"
         d="m 279.05429,255.35767 c 8.26537,0.0132 16.47434,1.5587 24.40399,3.89049 8.1304,2.39082 16.00895,5.60948 23.56523,9.4464 8.6395,4.38696 16.891,9.60403 24.22747,15.93353 16.76897,14.46733 28.31245,34.53784 33.90761,55.9667 6.21429,23.80008 5.19187,49.58192 -3.77858,72.4859 -8.97045,22.90398 -25.9937,42.72804 -47.73202,54.23919 -14.11454,7.47411 -30.12586,11.43586 -46.09161,11.01448 -15.96574,-0.42138 -31.84378,-5.27049 -45.10839,-14.16615 -21.53485,-14.44193 -34.97507,-38.42883 -42.97192,-63.09398 -7.15897,-22.08082 -10.55931,-45.85141 -6.01257,-68.61411 5.06011,-25.33285 20.26943,-48.5811 41.73435,-62.95521 12.95164,-8.67314 28.26902,-14.17209 43.85644,-14.14724 z"
         id="path1-2-1"
         transform="matrix(-1.0283462,0,0,1.0539982,974.69925,-117.99175)"
         inkscape:label="PawPrint2"
         sodipodi:nodetypes="sssssssssss"
         inkscape:original-d="m 279.05429,255.35767 c 14.61882,-4.71575 16.26933,2.59366 24.40399,3.89049 8.13467,1.29683 18.14212,7.20642 23.56523,9.4464 5.42311,2.23998 16.91806,11.57146 24.22747,15.93353 7.30941,4.36206 19.40669,35.4532 33.90761,55.9667 14.50092,20.51349 -45.73381,90.17806 -51.5106,126.72509 -5.77679,36.54703 -50.05511,-6.57059 -91.2,-3.15167 -41.14489,3.41892 -27.99942,-43.28784 -42.97192,-63.09398 -14.97249,-19.80613 -4.00838,-45.74274 -6.01257,-68.61411 -2.0042,-22.87137 27.8229,-41.97014 41.73435,-62.95521 13.91145,-20.98507 29.23763,-9.43149 43.85644,-14.14724 z"
         inkscape:path-effect="#path-effect1-4-2" /><path
         style="fill:#ffffff;fill-opacity:1"
         d="m 279.05429,255.35767 c 8.27566,-0.0944 16.55919,1.25333 24.40399,3.89049 5.61005,1.88591 10.97988,4.41824 16.26933,7.07362 7.70651,3.86877 15.29889,8.02702 22.2819,13.0862 20.5359,14.87825 35.02162,37.16536 43.14908,61.18681 6.21768,18.37691 8.92349,38.09978 6.43215,57.33942 -2.49135,19.23964 -10.34312,37.96091 -23.40884,52.30168 -15.21961,16.70485 -37.18806,26.86053 -59.72697,28.49954 -22.5389,1.639 -45.45089,-5.06965 -64.06137,-17.88911 -20.85113,-14.36289 -36.14971,-36.01944 -44.91749,-59.77209 -8.05588,-21.82403 -10.80371,-45.84943 -6.01257,-68.61411 5.31761,-25.26615 20.25004,-48.6346 41.73435,-62.95521 12.96035,-8.63887 28.28181,-13.96953 43.85644,-14.14724 z"
         id="path1-2-1-1"
         transform="matrix(-1.0353703,0,0,1.0445088,1153.3231,69.925881)"
         inkscape:label="PawPrint2"
         inkscape:original-d="m 279.05429,255.35767 c 14.61882,-4.71575 16.26933,2.59366 24.40399,3.89049 8.13467,1.29683 10.84622,4.83364 16.26933,7.07362 5.42311,2.23998 14.97249,8.72413 22.2819,13.0862 7.30941,4.36206 28.64816,40.67331 43.14908,61.18681 14.50092,20.51349 -11.1999,73.09407 -16.97669,109.6411 -5.77679,36.54703 -82.64345,7.19151 -123.78834,10.61043 -41.14489,3.41892 -29.94499,-39.96595 -44.91749,-59.77209 -14.97249,-19.80613 -4.00838,-45.74274 -6.01257,-68.61411 -2.0042,-22.87137 27.8229,-41.97014 41.73435,-62.95521 13.91145,-20.98507 29.23763,-9.43149 43.85644,-14.14724 z"
         inkscape:path-effect="#path-effect1-4-2-3" /></g><g
       inkscape:groupmode="layer"
       id="layer5"
       inkscape:label="Cross"
       transform="translate(171.1816,-77.809816)" /></g></svg>
