<?xml version="1.0" encoding="UTF-8" standalone="no"?>
<!-- Created with Inkscape (http://www.inkscape.org/) -->

<svg
   version="1.1"
   id="svg1"
   width="1153"
   height="1153"
   viewBox="0 0 1153 1153"
   sodipodi:docname="logo_baruvet_vanilla.svg"
   inkscape:version="1.4.3 (0d15f75, 2025-12-25)"
   xml:space="preserve"
   xmlns:inkscape="http://www.inkscape.org/namespaces/inkscape"
   xmlns:sodipodi="http://sodipodi.sourceforge.net/DTD/sodipodi-0.dtd"
   xmlns="http://www.w3.org/2000/svg"
   xmlns:svg="http://www.w3.org/2000/svg"><defs
     id="defs1"><inkscape:path-effect
       effect="spiro"
       id="path-effect5"
       is_visible="true"
       lpeversion="1" /><inkscape:path-effect
       effect="spiro"
       id="path-effect4"
       is_visible="true"
       lpeversion="1" /><inkscape:path-effect
       effect="spiro"
       id="path-effect3"
       is_visible="true"
       lpeversion="1" /><inkscape:path-effect
       effect="skeletal"
       id="path-effect2"
       is_visible="true"
       lpeversion="1"
       pattern="M 0,18.867925 C 0,8.4528302 8.4528302,0 18.867925,0 c 10.415094,0 18.867924,8.4528302 18.867924,18.867925 0,10.415094 -8.45283,18.867924 -18.867924,18.867924 C 8.4528302,37.735849 0,29.283019 0,18.867925 Z"
       copytype="single_stretched"
       prop_scale="1"
       scale_y_rel="false"
       spacing="0"
       normal_offset="0"
       tang_offset="0"
       prop_units="false"
       vertical_pattern="false"
       hide_knot="false"
       fuse_tolerance="0" /><inkscape:path-effect
       effect="spiro"
       id="path-effect1"
       is_visible="true"
       lpeversion="1" /><inkscape:path-effect
       effect="spiro"
       id="path-effect1-4"
       is_visible="true"
       lpeversion="1" /><inkscape:path-effect
       effect="spiro"
       id="path-effect1-4-5"
       is_visible="true"
       lpeversion="1" /><inkscape:path-effect
       effect="spiro"
       id="path-effect1-4-2"
       is_visible="true"
       lpeversion="1" /><inkscape:path-effect
       effect="spiro"
       id="path-effect1-4-2-3"
       is_visible="true"
       lpeversion="1" /><inkscape:path-effect
       effect="spiro"
       id="path-effect5-4"
       is_visible="true"
       lpeversion="1" /></defs><sodipodi:namedview
     id="namedview1"
     pagecolor="#ffffff"
     bordercolor="#999999"
     borderopacity="1"
     inkscape:showpageshadow="2"
     inkscape:pageopacity="0"
     inkscape:pagecheckerboard="0"
     inkscape:deskcolor="#d1d1d1"
     showgrid="true"
     inkscape:zoom="0.70685169"
     inkscape:cx="341.65583"
     inkscape:cy="568.01166"
     inkscape:window-width="1920"
     inkscape:window-height="1017"
     inkscape:window-x="-8"
     inkscape:window-y="-8"
     inkscape:window-maximized="1"
     inkscape:current-layer="layer6"><inkscape:grid
       id="grid1"
       units="px"
       originx="0"
       originy="0"
       spacingx="1"
       spacingy="1"
       empcolor="#0099e5"
       empopacity="0.30196078"
       color="#0099e5"
       opacity="0.14901961"
       empspacing="5"
       enabled="true"
       visible="true" /></sodipodi:namedview><g
     inkscape:groupmode="layer"
     id="layer1"
     inkscape:label="Logo"
     sodipodi:insensitive="true"><g
       inkscape:groupmode="layer"
       id="layer6"
       inkscape:label="Text"><path
         style="font-size:192px;font-family:'Titan One';-inkscape-font-specification:'Titan One';fill:#fcf9ea;fill-opacity:1;stroke:none;stroke-width:1.3186;stroke-opacity:1"
         d="M 95.495446,1133.3143 H 40.050688 q -12.658626,0 -16.962549,-1.7723 -4.303934,-1.7721 -4.303934,-5.5697 V 963.18244 q 0,-12.15227 73.166828,-12.15227 42.026627,0 57.976487,8.10152 16.20303,8.35469 20.76013,21.26647 2.53173,7.59518 2.53173,17.72213 0,19.74741 -6.83565,29.62121 -6.58249,9.8736 -14.43084,11.1395 11.89911,2.5317 19.74746,11.6458 7.84834,9.1143 7.84834,30.8872 0,25.3172 -15.44352,37.4694 -13.41814,10.6332 -41.01393,13.4182 -11.64593,1.0127 -27.595794,1.0127 z m 0.253166,-110.3831 q 12.911808,0 12.911808,-17.2158 0,-8.60785 -3.54442,-12.65861 -3.29125,-4.30393 -7.595182,-4.30393 h -8.101513 v 34.17834 z m -6.329307,72.6604 h 6.329307 q 12.911808,0 12.911808,-17.2158 0,-8.6078 -3.54442,-12.6586 -3.29125,-4.3039 -7.595182,-4.3039 h -8.101513 z m 154.688335,40.0012 q -23.03868,0 -36.20366,-10.8864 -5.31662,-4.5571 -9.36738,-13.4182 -3.79759,-8.8609 -3.79759,-20.7601 0,-11.899 5.5698,-20.7601 5.82297,-8.861 13.92448,-13.6713 8.10153,-4.8103 18.98793,-7.8483 16.45621,-4.3039 36.20367,-4.3039 h 8.35469 q 0,-10.3801 -7.08883,-14.6841 -3.03807,-1.7722 -9.36739,-1.7722 -6.07613,0 -14.93717,3.2913 -8.60787,3.2912 -14.43083,6.8356 -5.82296,3.2913 -7.84833,3.2913 -4.55712,0 -12.40545,-11.8991 -7.84835,-12.1523 -7.84835,-22.0261 0,-3.2912 9.36738,-8.6078 9.36738,-5.31661 26.32992,-9.62054 17.21573,-4.55712 33.41877,-4.55712 16.20302,0 27.84895,2.78491 11.89911,2.53172 19.24112,6.32935 7.59516,3.79755 12.65861,10.1269 5.31662,6.3292 7.84835,11.3927 2.78489,5.0634 4.05075,13.165 1.77221,9.3673 1.77221,23.0387 v 76.2049 q 0,2.7849 -13.67131,4.557 -13.41813,1.5191 -26.83627,1.5191 -13.16497,0 -17.21573,-0.7595 -3.79758,-0.7596 -4.5571,-1.7723 -0.75952,-1.0126 -1.26587,-3.5443 l -2.02538,-14.4309 h -2.02536 q -6.32931,22.7855 -34.68463,22.7855 z m 33.92511,-42.0266 v -29.6211 q -6.58249,0 -10.63325,5.5697 -4.05076,5.5698 -4.05076,12.6586 0,16.7094 7.59518,16.7094 3.29125,0 5.06345,-1.519 2.02538,-1.7722 2.02538,-3.7976 z m 154.43504,-40.2544 v 73.9264 q 0,2.7849 -14.43082,4.557 -14.17766,1.5191 -29.62117,1.5191 -15.19035,0 -19.74745,-1.2658 -4.55711,-1.5191 -4.55711,-4.8103 v -124.814 q 0,-4.81033 13.92449,-10.38015 14.17765,-5.56975 30.63386,-5.56975 16.70937,0 18.73476,9.11419 l 2.53173,11.64591 h 1.7722 q 3.54442,-9.62053 16.96255,-16.20299 13.41813,-6.83567 26.83627,-6.83567 13.41814,0 18.73476,4.30394 5.56979,4.3039 5.56979,11.13957 0,6.58245 -1.01269,16.96255 -1.01268,10.3801 -5.06345,22.5324 -3.79758,12.1522 -10.12688,12.1522 -2.53173,0 -15.94987,-3.7976 -13.41815,-3.7975 -22.27918,-3.7975 -8.60785,0 -10.8864,2.5317 -2.02539,2.5317 -2.02539,7.0888 z m 130.89026,82.281 q -28.35532,0 -39.74807,-14.684 -11.13959,-14.684 -11.13959,-51.1408 v -68.8629 q 0,-5.0634 14.93717,-9.62053 14.93718,-4.81027 31.39339,-4.81027 22.026,0 22.026,11.39278 v 64.30572 q 0,19.2412 1.51903,28.1021 1.51903,8.6079 7.59517,8.6079 8.10152,0 8.10152,-6.8356 v -91.1421 q 0,-5.31661 15.6967,-9.87369 15.69668,-4.55711 34.17827,-4.55711 18.48157,0 18.48157,9.87372 v 130.38368 q 0,3.5445 -15.94985,5.0635 -15.94987,1.5191 -31.39338,1.5191 -15.44351,0 -15.69669,-4.0508 l -2.53172,-16.4562 h -2.02538 q -2.27855,9.1143 -9.11422,14.9372 -3.54441,3.038 -10.63323,5.5698 -6.83566,2.2785 -15.69669,2.2785 z M 677.79184,971.53714 q 0,-3.03807 6.58249,-7.08883 6.58248,-4.30394 18.48159,-7.59517 12.15227,-3.29125 26.32992,-3.29125 14.17766,0 20.76015,4.05075 6.58248,4.05076 7.08883,8.86104 l 8.86103,92.15472 h 3.54442 l 7.84833,-89.87617 q 0.75952,-7.08883 17.21573,-11.13959 16.4562,-4.05075 30.63385,-4.05075 14.17766,0 21.01332,2.53172 6.83566,2.27856 8.60786,4.81028 2.02539,2.53172 2.02539,4.81028 0,2.02538 -3.79759,11.89909 -3.54442,9.62056 -7.59518,20.76014 -13.41813,35.4442 -45.31786,127.0925 -2.7849,7.8484 -43.54565,7.8484 -12.65863,0 -16.70938,-1.7723 -4.05076,-1.7721 -5.5698,-6.0761 -14.93716,-43.0393 -35.69731,-97.7244 -20.76014,-54.68533 -20.76014,-56.20436 z m 256.96982,104.56006 q 0,16.4563 15.69669,16.4563 9.1142,0 23.7982,-6.0761 14.684,-6.3294 15.44352,-6.3294 4.81028,0 12.65863,14.4309 7.8483,14.4308 7.8483,21.2665 0,9.8737 -20.25376,14.9371 -20.25379,5.0635 -39.74806,5.0635 -19.24111,0 -32.40607,-3.0381 -12.91179,-3.038 -21.26648,-7.5951 -8.10152,-4.8103 -14.43084,-11.646 -6.07613,-6.8356 -9.1142,-12.9118 -3.03807,-6.3293 -4.81028,-13.9244 -2.53173,-11.1397 -2.53173,-23.0387 0,-46.0773 24.05138,-63.5463 11.89911,-8.86103 26.5831,-12.40544 14.68401,-3.54442 34.68463,-3.54442 64.05261,0 64.05261,44.55836 0,47.3431 -71.90095,47.3431 z m -0.50635,-36.963 v 16.7094 q 7.342,0 11.89911,-5.823 4.81027,-5.823 4.81027,-14.1776 0,-15.1904 -7.84834,-15.1904 -8.86104,0 -8.86104,18.4816 z m 195.44889,91.9015 q -4.5571,4.304 -20.7601,4.304 -16.203,0 -26.8362,-2.0254 -10.6333,-2.2786 -20.2538,-8.6079 -18.4816,-12.4054 -18.4816,-51.6472 v -39.4948 h -12.6586 q -2.7849,0 -4.8103,-5.8229 -2.0254,-5.8231 -2.0254,-15.95 0,-10.1269 3.0381,-17.72207 3.2912,-7.8483 8.3547,-7.8483 h 8.1015 v -30.63386 q 0,-7.84835 15.1903,-12.65863 15.4435,-4.81028 30.1276,-4.81028 23.0386,0 23.0386,11.39277 v 36.71 h 18.7347 q 6.5825,0 6.5825,18.98797 0,12.4055 -3.0381,20.507 -2.7848,7.8483 -7.342,7.8483 h -14.9371 v 46.3305 q 0,6.8357 5.823,9.8737 5.8229,2.7849 10.1267,2.7849 4.5572,0 5.57,4.304 1.0126,4.3038 1.0126,12.9118 0,16.9624 -4.5571,21.2664 z"
         id="text4"
         aria-label="BaruVet"
         inkscape:label="BaruVet" /></g><g
       inkscape:groupmode="layer"
       id="layer4"
       inkscape:label="Cat"><path
         style="fill:#fcf9ea;fill-opacity:1;stroke:none;stroke-opacity:1"
         d="m 711.25245,432.90552 v 0 c -0.59537,-17.05299 -4.97509,-33.96357 -12.73251,-49.16165 -3.84471,-7.53242 -8.50825,-14.64655 -13.88198,-21.17665 l -2.29892,-0.88421 c -1.56435,-0.53986 -3.30214,-0.56345 -4.88056,-0.0663 -1.57842,0.49721 -2.98896,1.51252 -3.96147,2.85149 -1.10777,1.5252 -1.62177,3.38682 -2.34314,5.12838 -1.7618,4.25341 -4.79441,7.84321 -7.91361,11.22937 -8.00725,8.69256 -16.91171,16.55817 -26.52607,23.43136 l -19.6293,9.10729 c -7.5447,2.06007 -15.49206,2.63421 -23.25452,1.67998 -5.12495,-0.63001 -10.14328,-1.914 -15.20828,-2.91787 -5.18482,-1.02762 -10.69073,-1.73923 -15.65039,0.0884 -3.16497,1.16629 -5.94381,3.35555 -7.81846,6.15965 -1.87465,2.8041 -2.83554,6.20872 -2.70355,9.57916 0.22462,3.83555 0.90895,7.64398 2.03367,11.31779 2.7821,9.0875 8.20504,17.18701 14.58934,24.22715 4.81706,5.31191 10.1953,10.0804 15.2967,15.11986 6.33153,6.25465 12.30903,13.02989 16.35775,20.9556 4.78102,9.35925 6.68581,20.16345 5.39363,30.5934 -0.64714,3.65574 -1.4438,7.28501 -2.38734,10.87569 -0.41062,1.56265 -0.84906,3.11807 -1.23789,4.68628 -1.72914,6.97399 -2.4658,14.15169 -3.09471,21.30927 -1.47268,16.76029 -2.38058,33.64135 -0.8842,50.39954 0.56328,6.3083 1.46668,12.59213 1.67999,18.92194 0.1454,4.3147 -0.0408,8.6996 -1.32631,12.82093 -2.31927,7.43581 -8.35636,13.60857 -15.7388,16.09249 -3.7625,1.46624 -7.40409,3.24262 -10.87569,5.30521 -4.31244,2.56217 -8.365,5.56583 -12.82094,7.8694 -1.28078,0.66212 -2.59755,1.2669 -3.97891,1.67999 -0.64315,0.19233 -1.30544,0.34342 -1.97673,0.34671 -0.67128,0.003 -1.35632,-0.14952 -1.91376,-0.52355 -0.44958,-0.30166 -0.80302,-0.74084 -1.01542,-1.23885 -0.21239,-0.498 -0.28485,-1.0528 -0.22246,-1.5906 0.0889,-0.76653 0.44524,-1.48381 0.91579,-2.09541 0.47054,-0.61161 1.05319,-1.12712 1.6484,-1.61824 3.40655,-2.81082 7.31837,-4.93352 11.22937,-6.9852 2.89878,-1.52068 5.85656,-3.04357 8.22308,-5.30521 2.08419,-1.99183 3.64748,-4.52407 4.49422,-7.27984 0.84674,-2.75576 0.97506,-5.72892 0.36889,-8.54739 -1.92962,-5.48624 -6.23692,-10.08947 -11.58305,-12.37883 -2.65801,-1.13823 -5.52571,-1.71821 -8.39992,-2.03367 -9.83401,-1.07934 -20.06296,0.97671 -28.47132,6.18942 -6.58606,4.08298 -11.98666,10.05422 -15.38982,17.01594 -3.40316,6.96171 -4.7978,14.89122 -3.97422,22.59633 1.35362,14.11801 8.1042,27.65131 18.56826,37.22492 9.40618,8.60575 21.49571,13.91342 33.95337,16.62301 9.658,2.10066 19.57121,2.71524 29.44394,3.18313 27.71152,1.31329 55.47546,1.51983 83.20345,0.61894 15.85576,0.28957 31.76305,-2.5929 46.50905,-8.42766 31.61595,-12.50993 57.3798,-39.05347 68.9232,-71.03497 11.5434,-31.9815 8.66839,-68.86959 -7.70809,-98.66686 -5.52572,-10.05414 -12.4934,-19.30047 -20.5074,-27.50992 -13.69246,-14.0264 -30.38758,-25.02249 -43.01552,-40.01444 -2.90194,-3.44519 -5.57199,-7.08333 -8.03736,-10.85328 -1.70626,-2.60914 -3.35417,-5.39162 -3.71365,-8.48835 -0.39627,-3.41368 0.81358,-6.77861 1.76841,-10.0799 2.46552,-8.52448 3.31024,-17.51469 2.47576,-26.34924 z"
         id="path4"
         inkscape:path-effect="#path-effect4"
         inkscape:original-d="m 711.25245,432.90552 c 0.82526,-8.78308 0,0 0,0 0,0 -11.43568,-40.9091 -12.73251,-49.16165 -1.29683,-8.25256 -13.88198,-21.17665 -13.88198,-21.17665 0.0884,-0.0442 -3.09471,-1.19368 -2.29892,-0.88421 -0.79579,-0.39789 -6.01258,1.60631 -8.84203,2.78524 -2.82945,1.17894 -1.56209,3.41892 -2.34314,5.12838 -0.78104,1.70945 -5.27574,7.48624 -7.91361,11.22937 -2.63787,3.74312 -35.39757,31.24182 -26.52607,23.43136 -8.95992,7.81046 -26.14292,12.17252 -19.6293,9.10729 -6.51362,3.15365 -15.56196,1.14946 -23.25452,1.67998 -7.69256,0.53052 -10.07991,-1.94524 -15.20828,-2.91787 -5.12838,-0.97262 -10.43359,0.0589 -15.65039,0.0884 -5.21679,0.0295 -13.99987,20.98508 -10.52201,15.73881 -3.38944,5.24627 1.38525,7.54519 2.03367,11.31779 0.64842,3.7726 9.72623,16.15143 14.58934,24.22715 4.86311,8.07571 10.1978,10.07991 15.2967,15.11986 5.0989,5.03995 10.90517,13.9704 16.35775,20.9556 5.45258,6.9852 7.19151,40.76173 5.39363,30.5934 1.79788,10.07991 -1.59156,7.22099 -2.38734,10.87569 -0.79579,3.65471 -0.61894,2.85892 -1.23789,4.68628 -0.61894,1.82735 -2.00419,14.08829 -3.09471,21.30927 -1.09051,7.22099 -0.64841,33.62917 -0.8842,50.39954 -0.23578,16.77038 1.17894,12.58515 1.67999,18.92194 0.50105,6.33678 -0.85473,8.63571 -1.32631,12.82093 -0.47157,4.18523 -20.95559,21.45665 -15.7388,16.09249 -5.21679,5.27574 -7.22099,3.47786 -10.87569,5.30521 -3.6547,1.82735 -8.57676,5.27574 -12.82094,7.8694 -4.24417,2.59366 -2.68208,1.14947 -3.97891,1.67999 -1.29683,0.53052 -2.62313,-0.17684 -3.89049,-0.17684 -1.26735,0 -0.76631,-1.85683 -1.23788,-2.82945 -0.47158,-0.97262 1.65051,-2.74103 2.56419,-3.71365 0.91367,-0.97262 7.48624,-4.6568 11.22937,-6.9852 3.74312,-2.3284 5.541,-3.59576 8.22308,-5.30521 2.68208,-1.70946 6.57257,-21.16192 4.86311,-15.82723 1.79788,-5.33469 -7.66308,-8.22308 -11.58305,-12.37883 -3.91996,-4.15575 -5.68837,-1.38525 -8.39992,-2.03367 -2.71156,-0.64841 -18.98088,4.09681 -28.47132,6.18942 -9.49044,2.09261 -25.90713,52.78689 -19.36404,39.61227 -6.63151,13.17462 12.34937,24.81662 18.56826,37.22492 6.21889,12.40831 22.66505,11.11148 33.95337,16.62301 11.28832,5.51153 19.57035,2.38735 29.44394,3.18313 9.8736,0.79578 110.90846,0.82525 83.20345,0.61894 27.70501,0.11789 31.00604,-5.98137 46.50905,-8.42766 15.50302,-2.4463 45.14497,-106.46548 61.21511,-169.70183 16.07014,-63.23635 -13.83833,-18.50668 -20.5074,-27.50992 -6.66907,-9.00325 -28.67701,-26.50957 -43.01552,-40.01444 -14.3385,-13.50487 -5.35824,-7.17657 -8.03736,-10.85328 -2.67912,-3.67671 -2.53471,-5.83574 -3.71365,-8.48835 -1.17893,-2.6526 1.06105,-6.71994 1.76841,-10.0799 0.70736,-3.35997 1.65051,-17.56616 2.47576,-26.34924 z"
         inkscape:label="Cat"
         transform="matrix(1.3186063,0,0,1.3186063,-195.27676,-65.63766)" /></g><g
       inkscape:groupmode="layer"
       id="layer3"
       inkscape:label="Dog"><path
         style="fill:#fcf9ea;fill-opacity:1;stroke:none;stroke-width:2;stroke-dasharray:none;stroke-opacity:1"
         d="m 489.92674,734.76507 c 9.42555,-0.14236 18.84842,-0.47141 28.2602,-1.00036 7.88739,-0.44328 15.7669,-1.02695 23.63352,-1.75063 -6.21872,-3.07849 -12.13372,-6.77012 -17.63136,-11.00397 -10.22725,-7.87623 -19.26971,-18.14029 -22.50812,-30.63606 -1.6422,-6.33663 -1.72477,-12.98855 -1.1254,-19.50703 0.6521,-7.09202 2.12222,-14.17534 5.12685,-20.63245 5.23704,-11.25466 15.23189,-20.21244 27.00974,-24.1337 7.41208,-2.46774 15.32255,-2.98472 23.13335,-3.12613 4.0354,-0.0731 8.14067,-0.0416 12.00433,1.12541 5.37039,1.62209 9.96358,5.41443 13.00469,10.12865 3.95878,6.13677 5.34149,13.87993 3.75135,21.00758 1.93662,-1.32074 3.60546,-3.03238 4.87676,-5.00181 0.78045,-1.20903 1.41203,-2.51408 1.87568,-3.87639 1.0174,-2.98937 1.21235,-6.2049 1.03146,-9.35747 -0.18089,-3.15258 -0.7268,-6.27092 -1.15651,-9.3993 -1.80099,-13.1115 -1.56175,-26.40835 -1.25045,-39.6393 0.35044,-14.89453 0.80868,-29.93967 4.5749,-44.35444 1.77128,-6.77935 4.2844,-13.50669 4.24417,-20.5135 -0.0309,-5.38946 -1.59278,-10.68674 -3.89049,-15.56196 -6.13927,-13.02613 -17.18991,-22.9262 -27.23343,-33.24601 -6.88319,-7.07255 -13.47298,-14.59296 -18.03773,-23.34295 -2.80867,-5.38383 -4.82625,-11.23167 -5.42441,-17.27455 -0.59815,-6.04288 0.26819,-12.29108 2.94864,-17.73987 2.75762,-5.60565 7.54142,-10.32069 13.43988,-12.37883 6.53097,-2.27884 13.70211,-1.20493 20.51349,0 5.28829,0.9355 10.57247,1.93576 15.91565,2.47577 9.7119,0.98154 19.85816,0.35456 28.64816,-3.89049 6.92395,-3.34386 12.61303,-8.72082 18.39141,-13.79356 3.45128,-3.02982 6.97695,-5.98104 10.25675,-9.19571 7.09707,-6.95612 13.00014,-15.12729 17.37458,-24.0503 l 0.53052,-2.34314 -2.87366,-3.71365 -9.81465,-4.73048 c -4.11015,-0.27163 -8.19709,-0.89355 -12.20199,-1.85683 -14.05018,-3.37942 -26.71052,-10.83027 -39.78911,-16.97669 -10.11029,-4.75144 -20.68076,-8.78831 -31.74287,-10.34517 -17.30572,-2.43558 -35.12815,1.37748 -50.93006,8.84203 -7.8428,3.7048 -15.30394,8.32816 -21.67921,14.20957 -6.37527,5.88141 -11.6473,13.05861 -14.74993,21.15853 -3.77705,9.86058 -4.22453,20.62014 -5.30522,31.12392 -1.20441,11.70627 -3.27772,23.43471 -7.78098,34.30706 -6.15462,14.85928 -16.58757,27.52456 -27.58712,39.25859 -19.79678,21.11868 -41.9531,40.0701 -60.12576,62.60153 -11.89842,14.7523 -21.99761,30.9497 -30.06289,48.10062 -4.72698,10.05198 -8.78312,20.52098 -10.61043,31.4776 -3.9613,23.75217 2.96078,48.44786 15.56197,68.96779 15.35372,25.00219 39.49628,44.82311 67.55306,53.40583 19.25982,5.89169 39.71215,6.4864 59.85067,6.18225 z"
         id="path3"
         inkscape:path-effect="#path-effect3"
         inkscape:original-d="m 489.92674,734.76507 c 19.95023,2.06075 18.84013,-0.66691 28.2602,-1.00036 9.42006,-0.33346 23.63352,-1.75063 23.63352,-1.75063 0,0 -11.79592,-7.33598 -17.63136,-11.00397 -5.83544,-3.66799 -15.00541,-20.42404 -22.50812,-30.63606 -7.5027,-10.21201 -0.75027,-13.08805 -1.1254,-19.50703 -0.37514,-6.41898 3.33453,-13.71328 5.12685,-20.63245 1.79231,-6.91916 18.08986,-16.04745 27.00974,-24.1337 8.91989,-8.08625 15.42223,-2.08409 23.13335,-3.12613 7.71111,-1.04204 8.08625,0.75027 12.00433,1.12541 3.91808,0.37513 8.58643,6.75243 13.00469,10.12865 4.41826,3.37622 3.75135,21.00758 3.75135,21.00758 0,0 3.25117,-3.33454 4.87676,-5.00181 1.62559,-1.66726 1.25045,-2.58426 1.87568,-3.87639 0.62522,-1.29214 -0.0834,-12.50452 -0.12505,-18.75677 -0.0417,-6.25226 -0.83363,-26.4262 -1.25045,-39.6393 -0.41682,-13.2131 3.28572,-29.56963 4.5749,-44.35444 1.28918,-14.78481 2.59366,-13.55777 4.24417,-20.5135 1.65051,-6.95572 -2.59366,-10.49253 -3.89049,-15.56196 -1.29683,-5.06943 -18.15562,-22.16401 -27.23343,-33.24601 -9.07782,-11.08201 -11.90726,-15.32618 -18.03773,-23.34295 -6.13047,-8.01677 -1.65052,-23.57873 -2.47577,-35.01442 -0.82526,-11.43568 8.84202,-8.25255 13.43988,-12.37883 4.59785,-4.12628 13.67566,0 20.51349,0 6.83784,0 10.61043,1.65051 15.91565,2.47577 5.30521,0.82525 19.09877,-2.59366 28.64816,-3.89049 9.54938,-1.29683 12.26094,-9.19571 18.39141,-13.79356 6.13047,-4.59785 1.29683,1.53262 10.25675,-9.19571 8.95991,-10.72832 17.37458,-24.0503 17.37458,-24.0503 0,0 0.53052,-2.34314 0.53052,-2.34314 0,0 -2.87366,-3.71365 -2.87366,-3.71365 0.0884,0 -13.0862,-6.30731 -9.81465,-4.73048 -3.18313,-1.57683 -8.16413,-1.23789 -12.20199,-1.85683 -4.03786,-0.61894 -26.46713,-11.31779 -39.78911,-16.97669 -13.32199,-5.65889 -21.16192,-6.89678 -31.74287,-10.34517 -10.58096,-3.44838 -33.71759,5.89469 -50.93006,8.84203 -17.21248,2.94734 -24.52188,23.57873 -36.42914,35.3681 -11.90726,11.78936 -3.41892,20.63139 -5.30522,31.12392 -1.8863,10.49254 -5.06943,23.10716 -7.78098,34.30706 -2.71155,11.1999 -18.5093,25.9366 -27.58712,39.25859 -9.07781,13.32198 -40.20174,41.85225 -60.12576,62.60153 -19.92403,20.74929 -20.04193,32.06708 -30.06289,48.10062 -10.02096,16.03353 -6.95572,21.10296 -10.61043,31.4776 -3.6547,10.37465 10.25675,45.86064 15.56197,68.96779 5.30521,23.10716 45.03537,35.60389 67.55306,53.40583 22.51769,17.80195 39.90045,4.1215 59.85067,6.18225 z"
         inkscape:label="Dog"
         transform="matrix(1.3186063,0,0,1.3186063,-195.27676,-65.63766)" /></g><g
       inkscape:groupmode="layer"
       id="layer2"
       inkscape:label="PawPrints"><path
         id="path1"
         style="fill:#fcf9ea;fill-opacity:1;stroke:none;stroke-opacity:1"
         inkscape:label="PawPrint1"
         d="m 279.0542,255.35773 c -15.57463,0.17771 -30.89667,5.50887 -43.85702,14.14774 -21.48431,14.32061 -36.41552,37.68787 -41.73313,62.95402 -4.79115,22.76467 -2.04333,46.79024 6.01255,68.61427 8.76778,23.75265 24.06563,45.41032 44.91676,59.77321 18.61048,12.81946 41.52216,19.52691 64.06107,17.88791 22.5389,-1.63901 44.5072,-11.7935 59.72681,-28.49835 13.06571,-14.34077 20.91831,-33.06337 23.40966,-52.30301 2.49134,-19.23964 -0.21408,-38.96177 -6.43176,-57.33868 -8.12746,-24.02145 -22.61316,-46.3093 -43.14906,-61.18755 -6.983,-5.05918 -14.57598,-9.21676 -22.28249,-13.08553 -5.28945,-2.65538 -10.65989,-5.18724 -16.26994,-7.07314 -7.8448,-2.63716 -16.12779,-3.98531 -24.40345,-3.89089 z m 27.34816,49.75401 0.0176,42.42292 38.73272,0.0768 0.0176,36.83947 -38.73272,0.0565 -0.0352,42.46204 -33.78724,-0.0188 v -42.46205 h -38.71514 l -0.0176,-36.95395 h 38.73273 v -42.40408 z"
         transform="matrix(1.3324994,0,0,1.3478029,-198.39815,-74.492207)" /><path
         style="fill:#fcf9ea;fill-opacity:1;stroke:none;stroke-opacity:1"
         d="m 279.05429,255.35767 c 8.27566,-0.0944 16.55919,1.25333 24.40399,3.89049 5.61005,1.88591 10.97988,4.41824 16.26933,7.07362 7.70651,3.86877 15.29889,8.02702 22.2819,13.0862 20.5359,14.87825 35.02162,37.16536 43.14908,61.18681 6.21768,18.37691 8.92349,38.09978 6.43215,57.33942 -2.49135,19.23964 -10.34312,37.96091 -23.40884,52.30168 -15.21961,16.70485 -37.18806,26.86053 -59.72697,28.49954 -22.5389,1.639 -45.45089,-5.06965 -64.06137,-17.88911 -20.85113,-14.36289 -36.14971,-36.01944 -44.91749,-59.77209 -8.05588,-21.82403 -10.80371,-45.84943 -6.01257,-68.61411 5.31761,-25.26615 20.25004,-48.6346 41.73435,-62.95521 12.96035,-8.63887 28.28181,-13.96953 43.85644,-14.14724 z"
         id="path1-2"
         transform="matrix(1.3652458,0,0,1.3772959,11.984807,-334.35637)"
         inkscape:label="PawPrint2"
         inkscape:original-d="m 279.05429,255.35767 c 14.61882,-4.71575 16.26933,2.59366 24.40399,3.89049 8.13467,1.29683 10.84622,4.83364 16.26933,7.07362 5.42311,2.23998 14.97249,8.72413 22.2819,13.0862 7.30941,4.36206 28.64816,40.67331 43.14908,61.18681 14.50092,20.51349 -11.1999,73.09407 -16.97669,109.6411 -5.77679,36.54703 -82.64345,7.19151 -123.78834,10.61043 -41.14489,3.41892 -29.94499,-39.96595 -44.91749,-59.77209 -14.97249,-19.80613 -4.00838,-45.74274 -6.01257,-68.61411 -2.0042,-22.87137 27.8229,-41.97014 41.73435,-62.95521 13.91145,-20.98507 29.23763,-9.43149 43.85644,-14.14724 z"
         inkscape:path-effect="#path-effect1-4" /><path
         style="fill:#fcf9ea;fill-opacity:1;stroke:none;stroke-opacity:1"
         d="m 279.05429,255.35767 c 8.26537,0.0132 16.47434,1.5587 24.40399,3.89049 8.1304,2.39082 16.00895,5.60948 23.56523,9.4464 8.6395,4.38696 16.891,9.60403 24.22747,15.93353 16.76897,14.46733 28.31245,34.53784 33.90761,55.9667 6.21429,23.80008 5.19187,49.58192 -3.77858,72.4859 -8.97045,22.90398 -25.9937,42.72804 -47.73202,54.23919 -14.11454,7.47411 -30.12586,11.43586 -46.09161,11.01448 -15.96574,-0.42138 -31.84378,-5.27049 -45.10839,-14.16615 -21.53485,-14.44193 -34.97507,-38.42883 -42.97192,-63.09398 -7.15897,-22.08082 -10.55931,-45.85141 -6.01257,-68.61411 5.06011,-25.33285 20.26943,-48.5811 41.73435,-62.95521 12.95164,-8.67314 28.26902,-14.17209 43.85644,-14.14724 z"
         id="path1-2-1"
         transform="matrix(-1.3559838,0,0,1.3898087,1103.9062,-336.48495)"
         inkscape:label="PawPrint2"
         sodipodi:nodetypes="sssssssssss"
         inkscape:original-d="m 279.05429,255.35767 c 14.61882,-4.71575 16.26933,2.59366 24.40399,3.89049 8.13467,1.29683 18.14212,7.20642 23.56523,9.4464 5.42311,2.23998 16.91806,11.57146 24.22747,15.93353 7.30941,4.36206 19.40669,35.4532 33.90761,55.9667 14.50092,20.51349 -45.73381,90.17806 -51.5106,126.72509 -5.77679,36.54703 -50.05511,-6.57059 -91.2,-3.15167 -41.14489,3.41892 -27.99942,-43.28784 -42.97192,-63.09398 -14.97249,-19.80613 -4.00838,-45.74274 -6.01257,-68.61411 -2.0042,-22.87137 27.8229,-41.97014 41.73435,-62.95521 13.91145,-20.98507 29.23763,-9.43149 43.85644,-14.14724 z"
         inkscape:path-effect="#path-effect1-4-2" /><path
         style="fill:#fcf9ea;fill-opacity:1;stroke:none;stroke-opacity:1"
         d="m 279.05429,255.35767 c 8.27566,-0.0944 16.55919,1.25333 24.40399,3.89049 5.61005,1.88591 10.97988,4.41824 16.26933,7.07362 7.70651,3.86877 15.29889,8.02702 22.2819,13.0862 20.5359,14.87825 35.02162,37.16536 43.14908,61.18681 6.21768,18.37691 8.92349,38.09978 6.43215,57.33942 -2.49135,19.23964 -10.34312,37.96091 -23.40884,52.30168 -15.21961,16.70485 -37.18806,26.86053 -59.72697,28.49954 -22.5389,1.639 -45.45089,-5.06965 -64.06137,-17.88911 -20.85113,-14.36289 -36.14971,-36.01944 -44.91749,-59.77209 -8.05588,-21.82403 -10.80371,-45.84943 -6.01257,-68.61411 5.31761,-25.26615 20.25004,-48.6346 41.73435,-62.95521 12.96035,-8.63887 28.28181,-13.96953 43.85644,-14.14724 z"
         id="path1-2-1-1"
         transform="matrix(-1.3652458,0,0,1.3772959,1339.4408,-88.695585)"
         inkscape:label="PawPrint2"
         inkscape:original-d="m 279.05429,255.35767 c 14.61882,-4.71575 16.26933,2.59366 24.40399,3.89049 8.13467,1.29683 10.84622,4.83364 16.26933,7.07362 5.42311,2.23998 14.97249,8.72413 22.2819,13.0862 7.30941,4.36206 28.64816,40.67331 43.14908,61.18681 14.50092,20.51349 -11.1999,73.09407 -16.97669,109.6411 -5.77679,36.54703 -82.64345,7.19151 -123.78834,10.61043 -41.14489,3.41892 -29.94499,-39.96595 -44.91749,-59.77209 -14.97249,-19.80613 -4.00838,-45.74274 -6.01257,-68.61411 -2.0042,-22.87137 27.8229,-41.97014 41.73435,-62.95521 13.91145,-20.98507 29.23763,-9.43149 43.85644,-14.14724 z"
         inkscape:path-effect="#path-effect1-4-2-3" /></g><g
       inkscape:groupmode="layer"
       id="layer5"
       inkscape:label="Cross"
       transform="translate(171.1816,-77.809816)" /></g></svg>
