<svg xmlns="http://www.w3.org/2000/svg" width="28" height="28"
	viewBox="0 0 24 24" fill="none"
	stroke="currentColor" stroke-width="1.75"
	stroke-linecap="round" stroke-linejoin="round">
	<path d="M22 16.92v3a2 2 0 0 1-2.18 2
		19.86 19.86 0 0 1-8.63-3.07
		19.5 19.5 0 0 1-6-6
		19.86 19.86 0 0 1-3.07-8.63
		A2 2 0 0 1 4 2h3a2 2 0 0 1 2 1.72
		c.12 1.07.38 2.11.78 3.08
		a2 2 0 0 1-.45 2.11L8.09 10.91
		a16 16 0 0 0 6 6l1.99-1.99
		a2 2 0 0 1 2.11-.45
		c.97.4 2.01.66 3.08.78
		A2 2 0 0 1 22 16.92z" />
</svg>