<?xml version="1.0" encoding="UTF-8" standalone="no"?>
<!-- Uploaded to: SVG Repo, www.svgrepo.com, Generator: SVG Repo Mixer Tools -->

<svg
   fill="#000000"
   width="706"
   height="800"
   viewBox="0 0 28.24 32"
   version="1.1"
   id="svg1"
   sodipodi:docname="injection-svgrepo-com.svg"
   inkscape:version="1.4.3 (0d15f75, 2025-12-25)"
   xmlns:inkscape="http://www.inkscape.org/namespaces/inkscape"
   xmlns:sodipodi="http://sodipodi.sourceforge.net/DTD/sodipodi-0.dtd"
   xmlns="http://www.w3.org/2000/svg"
   xmlns:svg="http://www.w3.org/2000/svg"
   xmlns:rdf="http://www.w3.org/1999/02/22-rdf-syntax-ns#"
   xmlns:cc="http://creativecommons.org/ns#"
   xmlns:dc="http://purl.org/dc/elements/1.1/">
  <defs
     id="defs1" />
  <sodipodi:namedview
     id="namedview1"
     pagecolor="#ffffff"
     bordercolor="#999999"
     borderopacity="1"
     inkscape:showpageshadow="2"
     inkscape:pageopacity="0"
     inkscape:pagecheckerboard="0"
     inkscape:deskcolor="#d1d1d1"
     inkscape:zoom="0.72036503"
     inkscape:cx="360.23403"
     inkscape:cy="336.63488"
     inkscape:window-width="1920"
     inkscape:window-height="1017"
     inkscape:window-x="-8"
     inkscape:window-y="-8"
     inkscape:window-maximized="1"
     inkscape:current-layer="svg1" />
  <title
     id="title1">injection</title>
  <g
     id="g14"
     transform="translate(0.116,0.092)"
     style="fill:#660033;fill-opacity:1">
    <path
       d="m 27.97881,30.452266 c 0,0.725 -0.588,1.312 -1.312,1.312 -0.726,0 -1.313,-0.588 -1.313,-1.312 0,-0.726 1.313,-2.708 1.313,-2.708 0,0 1.312,1.983 1.312,2.708 z"
       id="path14"
       style="fill:#660033;fill-opacity:1" />
    <path
       id="path1"
       d="m 7.83579,13.308831 0.684,0.684 1.367,-1.367 -0.684,-0.684 z m 9.571,8.204 c -0.377,0.378 -0.989,0.378 -1.367,0 l -2.051,-2.051 1.367,-1.367 -0.684,-0.684 -1.367,1.367 -2.051,-2.051 1.367,-1.368 -0.684,-0.684 -1.368,1.368 -0.684,-0.684 2.735,-2.734 -0.684,-0.684 -2.735,2.734 -2.049,-2.049 2.734,-2.734001 -0.684,-0.684 -2.734,2.734001 -0.684,-0.684 c -0.378,-0.377 -0.378,-0.99 0,-1.367001 l 4.102,-4.102 c 0.378,-0.379 0.99,-0.379 1.368,0 l 10.254,10.254001 c 0.379,0.377 0.379,0.989 0,1.367 z m -2.734,-1.367 0.684,0.684 2.734,-2.734 -0.684,-0.684 z m 0,-5.469 -2.734,2.735 0.684,0.684 2.734,-2.735 z m 7.52,6.152 c 0.378,-0.377 0.378,-0.989 0,-1.367 -0.378,-0.378 -0.685,-0.684 -0.685,-0.684 l 0.685,-0.684 c 0.755,-0.755 0.755,-1.979 0,-2.735 L 11.93779,5.10583 c -0.756,-0.756 -1.98,-0.756 -2.735,0 l -0.684,0.684 -2.734,-2.736 1.367,-1.367 c 0.378,-0.377 0.378,-0.988 0,-1.367 -0.378,-0.377 -0.99,-0.377 -1.367,0 l -5.47,5.471 c -0.377,0.377 -0.377,0.988 0,1.367 0.378,0.377 0.99,0.377 1.367,0 l 1.367,-1.367 2.735,2.734 -0.684,0.684 c -0.756,0.754 -0.756,1.979001 0,2.734001 l 10.256,10.254 c 0.756,0.756 1.979,0.756 2.734,0 l 0.684,-0.684 0.684,0.684 c 0.378,0.378 0.99,0.378 1.367,0 l 0.342,-0.342 5.47,5.47 v -1.367 l -4.786,-4.786 z"
       style="fill:#660033;fill-opacity:1" />
  </g>
  <metadata
     id="metadata14">
    <rdf:RDF>
      <cc:Work
         rdf:about="">
        <dc:title>injection</dc:title>
      </cc:Work>
    </rdf:RDF>
  </metadata>
</svg>
