<?xml version="1.0" encoding="UTF-8" standalone="no"?>
<!-- Uploaded to: SVG Repo, www.svgrepo.com, Generator: SVG Repo Mixer Tools -->

<svg
   width="800px"
   height="800px"
   viewBox="0 0 24 24"
   fill="none"
   version="1.1"
   id="svg2"
   sodipodi:docname="stethoscope-svgrepo-com.svg"
   inkscape:version="1.4.3 (0d15f75, 2025-12-25)"
   xmlns:inkscape="http://www.inkscape.org/namespaces/inkscape"
   xmlns:sodipodi="http://sodipodi.sourceforge.net/DTD/sodipodi-0.dtd"
   xmlns="http://www.w3.org/2000/svg"
   xmlns:svg="http://www.w3.org/2000/svg">
  <defs
     id="defs2" />
  <sodipodi:namedview
     id="namedview2"
     pagecolor="#ffffff"
     bordercolor="#999999"
     borderopacity="1"
     inkscape:showpageshadow="2"
     inkscape:pageopacity="0"
     inkscape:pagecheckerboard="0"
     inkscape:deskcolor="#d1d1d1"
     inkscape:zoom="0.72036503"
     inkscape:cx="124.24257"
     inkscape:cy="447.68969"
     inkscape:window-width="1920"
     inkscape:window-height="1017"
     inkscape:window-x="-8"
     inkscape:window-y="-8"
     inkscape:window-maximized="1"
     inkscape:current-layer="svg2" />
  <g
     id="g2"
     transform="matrix(1.110942,0,0,1.110942,-0.9055914,-1.3165917)">
    <circle
       cx="19"
       cy="16"
       r="3"
       fill="#1C274C"
       id="circle1"
       style="fill:#660033;fill-opacity:1" />
    <path
       d="m 12,1.25 c 0.4142,0 0.75,0.33579 0.75,0.75 v 0.25143 c 0.1112,0.00168 0.2061,0.00532 0.2946,0.01315 1.8102,0.16007 3.245,1.59495 3.4051,3.4051 0.0146,0.16545 0.0146,0.35289 0.0146,0.6282 V 7.521 c 0,4.1224 -3.3419,7.4643 -7.46429,7.4643 -4.28021,0 -7.75,-3.4698 -7.75,-7.75001 L 1.25,6.29791 C 1.24997,6.02259 1.24995,5.83514 1.26458,5.66968 1.42465,3.85953 2.85954,2.42465 4.66969,2.26458 4.82536,2.25081 5.00051,2.25002 5.25001,2.24999 V 2 c 0,-0.41421 0.33578,-0.75 0.75,-0.75 0.41421,0 0.75,0.33579 0.75,0.75 v 2 c 0,0.41421 -0.33579,0.75 -0.75,0.75 -0.41422,0 -0.75,-0.33579 -0.75,-0.75 V 3.75002 C 4.9866,3.7502 4.88393,3.75148 4.80181,3.75875 3.71573,3.85479 2.85479,4.71572 2.75875,5.80181 2.75074,5.8924 2.75001,6.00802 2.75001,6.3369 v 0.89839 c 0,3.45181 2.79822,6.25001 6.25,6.25001 3.29399,0 5.96429,-2.6703 5.96429,-5.9643 V 6.3369 c 0,-0.32888 -7e-4,-0.4445 -0.0088,-0.53509 C 14.8595,4.71572 13.9986,3.85479 12.9125,3.75875 12.8702,3.755 12.8224,3.75285 12.75,3.75162 V 4 C 12.75,4.41421 12.4142,4.75 12,4.75 11.5858,4.75 11.25,4.41421 11.25,4 V 2 c 0,-0.41421 0.3358,-0.75 0.75,-0.75 z"
       fill="#1C274C"
       id="path1"
       style="fill:#660033;fill-opacity:1" />
    <path
       opacity="0.5"
       d="m 8.25,14.9496 v 2.0506 c 0,3.1757 2.5744,5.75 5.75,5.75 h 0.8824 c 1.8128,0 3.3932,-0.9914 4.2302,-2.458 0.2468,-0.4326 0.3696,-0.8958 0.4294,-1.3409 -0.1758,0.0321 -0.3569,0.0489 -0.542,0.0489 -0.3351,0 -0.6574,-0.055 -0.9583,-0.1564 -0.0431,0.2671 -0.1157,0.5012 -0.2319,0.7049 -0.5809,1.018 -1.6748,1.7015 -2.9274,1.7015 H 14 c -2.3472,0 -4.25,-1.9028 -4.25,-4.25 v -2.052 C 9.50334,14.9729 9.25314,14.9855 9.00001,14.9855 8.74699,14.9855 8.4968,14.9733 8.25,14.9496 Z"
       fill="#1C274C"
       id="path2"
       style="fill:#660033;fill-opacity:1" />
  </g>
</svg>
